<svg width="194" height="14" viewBox="0 0 194 14" fill="none" xmlns="http://www.w3.org/2000/svg">
<g id="Line 1" filter="url(#filter0_d_30_234)">
<path d="M4.33333 3C4.33333 4.47276 5.52724 5.66667 7 5.66667C8.47276 5.66667 9.66667 4.47276 9.66667 3C9.66667 1.52724 8.47276 0.333333 7 0.333333C5.52724 0.333333 4.33333 1.52724 4.33333 3ZM184.333 3.00002C184.333 4.47277 185.527 5.66668 187 5.66668C188.473 5.66668 189.667 4.47278 189.667 3.00002C189.667 1.52726 188.473 0.333349 187 0.333349C185.527 0.333349 184.333 1.52726 184.333 3.00002ZM7 3.5L187 3.50002L187 2.50002L7 2.5L7 3.5Z" fill="black"/>
</g>
<defs>
<filter id="filter0_d_30_234" x="0.333313" y="0.333252" width="193.333" height="13.3335" filterUnits="userSpaceOnUse" color-interpolation-filters="sRGB">
<feFlood flood-opacity="0" result="BackgroundImageFix"/>
<feColorMatrix in="SourceAlpha" type="matrix" values="0 0 0 0 0 0 0 0 0 0 0 0 0 0 0 0 0 0 127 0" result="hardAlpha"/>
<feOffset dy="4"/>
<feGaussianBlur stdDeviation="2"/>
<feComposite in2="hardAlpha" operator="out"/>
<feColorMatrix type="matrix" values="0 0 0 0 0 0 0 0 0 0 0 0 0 0 0 0 0 0 0.25 0"/>
<feBlend mode="normal" in2="BackgroundImageFix" result="effect1_dropShadow_30_234"/>
<feBlend mode="normal" in="SourceGraphic" in2="effect1_dropShadow_30_234" result="shape"/>
</filter>
</defs>
</svg>
