<svg xmlns="http://www.w3.org/2000/svg" xmlns:xlink="http://www.w3.org/1999/xlink" width="500" zoomAndPan="magnify" viewBox="0 0 375 374.999991" height="500" preserveAspectRatio="xMidYMid meet" version="1.0"><defs><g/><clipPath id="18147b9996"><path d="M 129 178 L 218 178 L 218 225.324219 L 129 225.324219 Z M 129 178 " clip-rule="nonzero"/></clipPath></defs><path fill="#ff4500" d="M 313.90625 51.210938 C 312.519531 46.867188 300.808594 53.949219 295.949219 58.542969 L 292.382812 61.515625 L 264.140625 67.695312 C 261.90625 68.183594 259.851562 69.296875 258.265625 70.945312 C 257.652344 71.585938 257.316406 72.109375 257.785156 72.179688 C 261.242188 72.695312 277.066406 71.523438 281.929688 70.96875 L 260.257812 91.027344 L 251.667969 87.609375 L 247.179688 89.101562 L 256.125 96.105469 L 256.671875 100.25 C 256.671875 100.25 279.433594 83.230469 286.121094 78.519531 C 284.464844 82.605469 280.378906 91.179688 279.984375 94.011719 C 279.925781 94.441406 280.503906 94.550781 281.300781 94.503906 C 283.65625 94.367188 285.765625 92.980469 286.902344 90.914062 L 298.664062 69.609375 C 311.4375 60.914062 314.492188 53.753906 313.90625 51.210938 " fill-opacity="1" fill-rule="nonzero"/><path fill="#0055ff" d="M 140.980469 170.15625 C 140.976562 169.847656 140.96875 169.542969 140.96875 169.234375 C 140.96875 140.636719 164.175781 117.457031 192.804688 117.457031 C 201.90625 117.457031 210.457031 119.800781 217.886719 123.917969 C 208.617188 117.15625 197.195312 113.164062 184.835938 113.164062 C 154.179688 113.164062 129.269531 137.710938 128.714844 168.195312 C 132.5625 169.109375 136.667969 169.765625 140.980469 170.15625 " fill-opacity="1" fill-rule="nonzero"/><g clip-path="url(#18147b9996)"><path fill="#0055ff" d="M 192.804688 221.007812 C 182.027344 221.007812 172.023438 217.722656 163.730469 212.097656 C 161.835938 211.972656 159.972656 211.886719 158.15625 211.886719 C 158.15625 211.886719 153.472656 212.648438 150.015625 213.210938 C 159.582031 220.78125 171.679688 225.300781 184.835938 225.300781 C 197.195312 225.300781 208.617188 221.308594 217.886719 214.550781 C 210.457031 218.664062 201.90625 221.007812 192.804688 221.007812 Z M 142.046875 179.777344 C 137.632812 179.539062 133.410156 179.03125 129.429688 178.265625 C 130.695312 186.074219 133.578125 193.335938 137.714844 199.707031 L 142.582031 201.230469 C 146.019531 202.300781 149.800781 203.035156 153.882812 203.421875 C 148.0625 196.816406 143.898438 188.71875 142.046875 179.777344 " fill-opacity="1" fill-rule="nonzero"/></g><path fill="#0055ff" d="M 195.894531 207.410156 C 224.34375 197.0625 244.609375 177.988281 247.179688 161.003906 C 241.035156 176.0625 222.507812 191.613281 197.820312 200.59375 C 176.746094 208.261719 156.03125 209.375 141.457031 204.820312 C 144.246094 208.207031 147.421875 211.257812 150.917969 213.910156 C 164 215.285156 179.84375 213.25 195.894531 207.410156 " fill-opacity="1" fill-rule="nonzero"/><path fill="#ff4500" d="M 201.316406 165.570312 C 153.683594 182.898438 107.371094 175.835938 97.878906 149.800781 C 96.167969 145.109375 95.773438 140.117188 96.546875 134.988281 C 93.128906 143.371094 92.5 151.644531 95.238281 159.15625 C 104.730469 185.191406 151.042969 192.25 198.679688 174.925781 C 237.726562 160.722656 265.542969 134.542969 269.074219 111.226562 C 260.636719 131.894531 235.210938 153.246094 201.316406 165.570312 " fill-opacity="1" fill-rule="nonzero"/><g fill="#ffffff" fill-opacity="1"><g transform="translate(129.066583, 239.410692)"><g><path d="M 14.0625 -6.109375 L 10.375 -7.53125 L 6.46875 2.515625 L 3.96875 1.546875 L 7.875 -8.5 L 4.234375 -9.921875 L 5.015625 -11.9375 L 14.84375 -8.125 Z M 14.0625 -6.109375 "/></g></g></g><g fill="#ffffff" fill-opacity="1"><g transform="translate(141.502349, 244.075819)"><g><path d="M 10.046875 -3.25 L 5.09375 -4.5 L 4.25 -1.140625 L 10.0625 0.328125 L 9.53125 2.40625 L 1.125 0.28125 L 4.296875 -12.265625 L 12.6875 -10.140625 L 12.15625 -8.046875 L 6.359375 -9.515625 L 5.609375 -6.53125 L 10.5625 -5.28125 Z M 10.046875 -3.25 "/></g></g></g><g fill="#ffffff" fill-opacity="1"><g transform="translate(153.423799, 247.003679)"><g><path d="M 6.484375 -3.96875 L 4.375 -4.234375 L 3.796875 0.46875 L 1.140625 0.140625 L 2.734375 -12.703125 L 7.515625 -12.109375 C 9.023438 -11.921875 10.148438 -11.4375 10.890625 -10.65625 C 11.640625 -9.882812 11.9375 -8.882812 11.78125 -7.65625 C 11.675781 -6.769531 11.394531 -6.054688 10.9375 -5.515625 C 10.476562 -4.984375 9.84375 -4.585938 9.03125 -4.328125 L 11.171875 1.25 L 11.15625 1.375 L 8.3125 1.03125 Z M 4.640625 -6.375 L 6.765625 -6.109375 C 7.441406 -6.023438 7.976562 -6.128906 8.375 -6.421875 C 8.78125 -6.722656 9.019531 -7.171875 9.09375 -7.765625 C 9.164062 -8.367188 9.054688 -8.863281 8.765625 -9.25 C 8.472656 -9.644531 7.96875 -9.882812 7.25 -9.96875 L 5.125 -10.234375 Z M 4.640625 -6.375 "/></g></g></g><g fill="#ffffff" fill-opacity="1"><g transform="translate(167.055753, 248.571487)"><g><path d="M 8.4375 -2.765625 L 3.75 -2.71875 L 2.890625 -0.03125 L 0.0625 0 L 4.71875 -13 L 7.1875 -13.03125 L 12.1875 -0.140625 L 9.359375 -0.109375 Z M 4.4375 -4.875 L 7.671875 -4.921875 L 6 -9.75 Z M 4.4375 -4.875 "/></g></g></g><g fill="#ffffff" fill-opacity="1"><g transform="translate(181.446232, 248.26901)"><g><path d="M 11.53125 -1.78125 L 8.90625 -1.375 L 2.484375 -9 L 3.78125 -0.578125 L 1.140625 -0.171875 L -0.828125 -12.953125 L 1.8125 -13.359375 L 8.234375 -5.734375 L 6.9375 -14.15625 L 9.5625 -14.5625 Z M 11.53125 -1.78125 "/></g></g></g><g fill="#ffffff" fill-opacity="1"><g transform="translate(196.245149, 245.813592)"><g><path d="M 10.40625 -4.875 C 10.125 -4.1875 9.609375 -3.5625 8.859375 -3 C 8.117188 -2.445312 7.234375 -2.015625 6.203125 -1.703125 C 5.140625 -1.378906 4.132812 -1.328125 3.1875 -1.546875 C 2.238281 -1.765625 1.410156 -2.253906 0.703125 -3.015625 C -0.00390625 -3.773438 -0.550781 -4.75 -0.9375 -5.9375 L -1.1875 -6.78125 C -1.570312 -8.019531 -1.691406 -9.15625 -1.546875 -10.1875 C -1.398438 -11.21875 -1.003906 -12.09375 -0.359375 -12.8125 C 0.273438 -13.539062 1.117188 -14.0625 2.171875 -14.375 C 3.640625 -14.820312 4.894531 -14.820312 5.9375 -14.375 C 6.976562 -13.925781 7.773438 -13.054688 8.328125 -11.765625 L 5.859375 -11.015625 C 5.523438 -11.679688 5.113281 -12.117188 4.625 -12.328125 C 4.132812 -12.546875 3.550781 -12.550781 2.875 -12.34375 C 2.007812 -12.082031 1.445312 -11.550781 1.1875 -10.75 C 0.9375 -9.957031 1 -8.921875 1.375 -7.640625 L 1.625 -6.84375 C 2.019531 -5.550781 2.5625 -4.648438 3.25 -4.140625 C 3.945312 -3.628906 4.773438 -3.519531 5.734375 -3.8125 C 6.691406 -4.101562 7.3125 -4.515625 7.59375 -5.046875 L 6.953125 -7.171875 L 4.625 -6.453125 L 4.046875 -8.328125 L 8.90625 -9.8125 Z M 10.40625 -4.875 "/></g></g></g><g fill="#ffffff" fill-opacity="1"><g transform="translate(210.09885, 241.439213)"><g><path d="M 6.5625 -5.984375 L 2.3125 -4.015625 L 2.625 -1.21875 L 0.0625 -0.03125 L -1.015625 -13.78125 L 1.21875 -14.828125 L 11.0625 -5.125 L 8.484375 -3.9375 Z M 2.046875 -6.265625 L 4.984375 -7.625 L 1.484375 -11.359375 Z M 2.046875 -6.265625 "/></g></g></g><g fill="#ffffff" fill-opacity="1"><g transform="translate(222.773751, 235.249361)"><g/></g></g><g fill="#ffffff" fill-opacity="1"><g transform="translate(228.327627, 232.075926)"><g><path d="M 2.90625 -6.09375 L -0.453125 -15.6875 L 1.953125 -17.421875 L 5.921875 -4.3125 L 3.671875 -2.671875 L -7.578125 -10.484375 L -5.1875 -12.234375 Z M 2.90625 -6.09375 "/></g></g></g><g fill="#ffffff" fill-opacity="1"><g transform="translate(239.588862, 223.714616)"><g><path d="M 4.1875 -12.625 C 5.0625 -11.707031 5.671875 -10.75 6.015625 -9.75 C 6.367188 -8.75 6.425781 -7.769531 6.1875 -6.8125 C 5.945312 -5.851562 5.4375 -5 4.65625 -4.25 C 3.882812 -3.5 3.015625 -3.015625 2.046875 -2.796875 C 1.078125 -2.585938 0.0976562 -2.664062 -0.890625 -3.03125 C -1.890625 -3.394531 -2.828125 -4.023438 -3.703125 -4.921875 L -4.140625 -5.390625 C -5.023438 -6.304688 -5.632812 -7.269531 -5.96875 -8.28125 C -6.3125 -9.289062 -6.363281 -10.273438 -6.125 -11.234375 C -5.894531 -12.191406 -5.390625 -13.046875 -4.609375 -13.796875 C -3.835938 -14.546875 -2.96875 -15.023438 -2 -15.234375 C -1.03125 -15.441406 -0.046875 -15.359375 0.953125 -14.984375 C 1.953125 -14.609375 2.894531 -13.960938 3.78125 -13.046875 Z M 1.828125 -11.171875 C 0.890625 -12.148438 0 -12.722656 -0.84375 -12.890625 C -1.6875 -13.066406 -2.429688 -12.84375 -3.078125 -12.21875 C -3.722656 -11.601562 -3.972656 -10.867188 -3.828125 -10.015625 C -3.691406 -9.171875 -3.160156 -8.269531 -2.234375 -7.3125 L -1.78125 -6.84375 C -0.863281 -5.894531 0.015625 -5.328125 0.859375 -5.140625 C 1.710938 -4.960938 2.46875 -5.191406 3.125 -5.828125 C 3.769531 -6.453125 4.019531 -7.179688 3.875 -8.015625 C 3.738281 -8.847656 3.203125 -9.753906 2.265625 -10.734375 Z M 1.828125 -11.171875 "/></g></g></g><g fill="#ffffff" fill-opacity="1"><g transform="translate(250.009399, 213.39402)"><g><path d="M -2.09375 -8.828125 L -5 -14.546875 L -3.203125 -16.828125 L 0.640625 -8.390625 L 4.328125 -5.484375 L 2.640625 -3.34375 L -1.046875 -6.25 L -10.140625 -8.03125 L -8.34375 -10.328125 Z M -2.09375 -8.828125 "/></g></g></g><g fill="#ffffff" fill-opacity="1"><g transform="translate(258.191007, 202.851036)"><g><path d="M 2.015625 -8.640625 L -0.375 -4.609375 L 1.46875 -2.484375 L 0.03125 -0.046875 L -8.640625 -10.78125 L -7.375 -12.90625 L 6.21875 -10.484375 L 4.765625 -8.046875 Z M -1.859375 -6.34375 L -0.21875 -9.125 L -5.21875 -10.1875 Z M -1.859375 -6.34375 "/></g></g></g><g fill="#ffffff" fill-opacity="1"><g transform="translate(265.397516, 190.410134)"><g><path d="M 2.875 -11.140625 C 3.226562 -10.472656 3.378906 -9.675781 3.328125 -8.75 C 3.285156 -7.820312 3.054688 -6.863281 2.640625 -5.875 C 2.210938 -4.84375 1.609375 -4.03125 0.828125 -3.4375 C 0.0546875 -2.851562 -0.84375 -2.53125 -1.875 -2.46875 C -2.914062 -2.40625 -4.019531 -2.601562 -5.1875 -3.0625 L -6 -3.40625 C -7.195312 -3.90625 -8.144531 -4.535156 -8.84375 -5.296875 C -9.539062 -6.066406 -9.960938 -6.925781 -10.109375 -7.875 C -10.253906 -8.832031 -10.117188 -9.816406 -9.703125 -10.828125 C -9.109375 -12.253906 -8.304688 -13.222656 -7.296875 -13.734375 C -6.285156 -14.253906 -5.101562 -14.316406 -3.75 -13.921875 L -4.75 -11.515625 C -5.476562 -11.691406 -6.078125 -11.660156 -6.546875 -11.421875 C -7.023438 -11.179688 -7.398438 -10.738281 -7.671875 -10.09375 C -8.023438 -9.25 -7.976562 -8.472656 -7.53125 -7.765625 C -7.082031 -7.066406 -6.238281 -6.453125 -5 -5.921875 L -4.234375 -5.609375 C -2.984375 -5.085938 -1.9375 -4.929688 -1.09375 -5.140625 C -0.257812 -5.359375 0.347656 -5.925781 0.734375 -6.84375 C 1.117188 -7.769531 1.195312 -8.507812 0.96875 -9.0625 L -1.078125 -9.921875 L -2.03125 -7.671875 L -3.84375 -8.4375 L -1.875 -13.140625 Z M 2.875 -11.140625 "/></g></g></g><g fill="#ffffff" fill-opacity="1"><g transform="translate(270.787112, 176.996487)"><g><path d="M -3.046875 -10.109375 L -4.390625 -5.171875 L -1.046875 -4.25 L 0.53125 -10.046875 L 2.59375 -9.484375 L 0.3125 -1.109375 L -12.171875 -4.53125 L -9.890625 -12.890625 L -7.8125 -12.3125 L -9.390625 -6.53125 L -6.40625 -5.71875 L -5.0625 -10.65625 Z M -3.046875 -10.109375 "/></g></g></g><g fill="#ffffff" fill-opacity="1"><g transform="translate(273.933164, 165.145466)"><g><path d="M -2.21875 -8.265625 C -2.71875 -8.335938 -3.125 -8.21875 -3.4375 -7.90625 C -3.757812 -7.59375 -4.132812 -7 -4.5625 -6.125 C -5 -5.257812 -5.398438 -4.582031 -5.765625 -4.09375 C -6.765625 -2.75 -7.929688 -2.175781 -9.265625 -2.375 C -9.953125 -2.46875 -10.535156 -2.753906 -11.015625 -3.234375 C -11.503906 -3.710938 -11.847656 -4.332031 -12.046875 -5.09375 C -12.242188 -5.863281 -12.28125 -6.703125 -12.15625 -7.609375 C -12.019531 -8.523438 -11.734375 -9.316406 -11.296875 -9.984375 C -10.859375 -10.660156 -10.304688 -11.148438 -9.640625 -11.453125 C -8.984375 -11.765625 -8.273438 -11.863281 -7.515625 -11.75 L -7.890625 -9.109375 C -8.472656 -9.191406 -8.957031 -9.070312 -9.34375 -8.75 C -9.726562 -8.425781 -9.96875 -7.929688 -10.0625 -7.265625 C -10.15625 -6.628906 -10.085938 -6.113281 -9.859375 -5.71875 C -9.640625 -5.320312 -9.3125 -5.09375 -8.875 -5.03125 C -8.445312 -4.96875 -8.0625 -5.125 -7.71875 -5.5 C -7.382812 -5.875 -7.035156 -6.453125 -6.671875 -7.234375 C -5.992188 -8.660156 -5.269531 -9.664062 -4.5 -10.25 C -3.738281 -10.84375 -2.859375 -11.066406 -1.859375 -10.921875 C -0.753906 -10.765625 0.0507812 -10.21875 0.5625 -9.28125 C 1.070312 -8.351562 1.222656 -7.175781 1.015625 -5.75 C 0.867188 -4.769531 0.554688 -3.90625 0.078125 -3.15625 C -0.390625 -2.40625 -0.96875 -1.859375 -1.65625 -1.515625 C -2.34375 -1.179688 -3.101562 -1.078125 -3.9375 -1.203125 L -3.5625 -3.84375 C -2.144531 -3.632812 -1.3125 -4.375 -1.0625 -6.0625 C -0.96875 -6.6875 -1.019531 -7.191406 -1.21875 -7.578125 C -1.425781 -7.972656 -1.757812 -8.203125 -2.21875 -8.265625 Z M -2.21875 -8.265625 "/></g></g></g></svg>