<svg xmlns="http://www.w3.org/2000/svg" xmlns:xlink="http://www.w3.org/1999/xlink" width="500" zoomAndPan="magnify" viewBox="0 0 375 374.999991" height="500" preserveAspectRatio="xMidYMid meet" version="1.0"><defs><g/><clipPath id="4ebc1acccf"><path d="M 129 178 L 218 178 L 218 225.324219 L 129 225.324219 Z M 129 178 " clip-rule="nonzero"/></clipPath></defs><path fill="#0055ff" d="M 313.90625 51.210938 C 312.519531 46.867188 300.808594 53.949219 295.949219 58.542969 L 292.382812 61.515625 L 264.140625 67.695312 C 261.90625 68.183594 259.851562 69.296875 258.265625 70.945312 C 257.652344 71.585938 257.316406 72.109375 257.785156 72.179688 C 261.242188 72.695312 277.066406 71.523438 281.929688 70.96875 L 260.257812 91.027344 L 251.667969 87.609375 L 247.179688 89.101562 L 256.125 96.105469 L 256.671875 100.25 C 256.671875 100.25 279.433594 83.230469 286.121094 78.519531 C 284.464844 82.605469 280.378906 91.179688 279.984375 94.011719 C 279.925781 94.441406 280.503906 94.550781 281.300781 94.503906 C 283.65625 94.367188 285.765625 92.980469 286.902344 90.914062 L 298.664062 69.609375 C 311.4375 60.914062 314.492188 53.753906 313.90625 51.210938 " fill-opacity="1" fill-rule="nonzero"/><path fill="#ff4500" d="M 140.980469 170.15625 C 140.976562 169.847656 140.96875 169.542969 140.96875 169.234375 C 140.96875 140.636719 164.175781 117.457031 192.804688 117.457031 C 201.90625 117.457031 210.457031 119.800781 217.886719 123.917969 C 208.617188 117.15625 197.195312 113.164062 184.835938 113.164062 C 154.179688 113.164062 129.269531 137.710938 128.714844 168.195312 C 132.5625 169.109375 136.667969 169.765625 140.980469 170.15625 " fill-opacity="1" fill-rule="nonzero"/><g clip-path="url(#4ebc1acccf)"><path fill="#ff4500" d="M 192.804688 221.007812 C 182.027344 221.007812 172.023438 217.722656 163.730469 212.097656 C 161.835938 211.972656 159.972656 211.886719 158.15625 211.886719 C 158.15625 211.886719 153.472656 212.648438 150.015625 213.210938 C 159.582031 220.78125 171.679688 225.300781 184.835938 225.300781 C 197.195312 225.300781 208.617188 221.308594 217.886719 214.550781 C 210.457031 218.664062 201.90625 221.007812 192.804688 221.007812 Z M 142.046875 179.777344 C 137.632812 179.539062 133.410156 179.03125 129.429688 178.265625 C 130.695312 186.074219 133.578125 193.335938 137.714844 199.707031 L 142.582031 201.230469 C 146.019531 202.300781 149.800781 203.035156 153.882812 203.421875 C 148.0625 196.816406 143.898438 188.71875 142.046875 179.777344 " fill-opacity="1" fill-rule="nonzero"/></g><path fill="#ff4500" d="M 195.894531 207.410156 C 224.34375 197.0625 244.609375 177.988281 247.179688 161.003906 C 241.035156 176.0625 222.507812 191.613281 197.820312 200.59375 C 176.746094 208.261719 156.03125 209.375 141.457031 204.820312 C 144.246094 208.207031 147.421875 211.257812 150.917969 213.910156 C 164 215.285156 179.84375 213.25 195.894531 207.410156 " fill-opacity="1" fill-rule="nonzero"/><path fill="#0055ff" d="M 201.316406 165.570312 C 153.683594 182.898438 107.371094 175.835938 97.878906 149.800781 C 96.167969 145.109375 95.773438 140.117188 96.546875 134.988281 C 93.128906 143.371094 92.5 151.644531 95.238281 159.15625 C 104.730469 185.191406 151.042969 192.25 198.679688 174.925781 C 237.726562 160.722656 265.542969 134.542969 269.074219 111.226562 C 260.636719 131.894531 235.210938 153.246094 201.316406 165.570312 " fill-opacity="1" fill-rule="nonzero"/><g fill="#000000" fill-opacity="1"><g transform="translate(131.001275, 238.503082)"><g><path d="M 13.8125 -7.125 L 9.921875 -8.59375 L 5.875 2.203125 L 4.296875 1.609375 L 8.34375 -9.1875 L 4.453125 -10.640625 L 4.953125 -11.953125 L 14.3125 -8.4375 Z M 13.8125 -7.125 "/></g></g></g><g fill="#000000" fill-opacity="1"><g transform="translate(142.900276, 242.834743)"><g><path d="M 9.96875 -3.734375 L 4.515625 -5.0625 L 3.4375 -0.609375 L 9.78125 0.921875 L 9.453125 2.28125 L 1.453125 0.359375 L 4.5 -12.21875 L 12.421875 -10.3125 L 12.09375 -8.9375 L 5.828125 -10.453125 L 4.84375 -6.421875 L 10.296875 -5.09375 Z M 9.96875 -3.734375 "/></g></g></g><g fill="#000000" fill-opacity="1"><g transform="translate(154.736112, 245.611311)"><g><path d="M 6.796875 -4.484375 L 3.78125 -4.84375 L 3.1875 0.359375 L 1.484375 0.171875 L 2.953125 -12.6875 L 7.21875 -12.203125 C 8.664062 -12.035156 9.738281 -11.578125 10.4375 -10.828125 C 11.144531 -10.078125 11.425781 -9.070312 11.28125 -7.8125 C 11.1875 -7.019531 10.890625 -6.347656 10.390625 -5.796875 C 9.890625 -5.242188 9.238281 -4.867188 8.4375 -4.671875 L 10.828125 1.140625 L 10.8125 1.25 L 9 1.03125 Z M 3.9375 -6.21875 L 6.546875 -5.90625 C 7.390625 -5.8125 8.082031 -5.957031 8.625 -6.34375 C 9.175781 -6.726562 9.492188 -7.28125 9.578125 -8 C 9.671875 -8.800781 9.503906 -9.441406 9.078125 -9.921875 C 8.648438 -10.398438 7.992188 -10.6875 7.109375 -10.78125 L 4.5 -11.09375 Z M 3.9375 -6.21875 "/></g></g></g><g fill="#000000" fill-opacity="1"><g transform="translate(167.719911, 247.004993)"><g><path d="M 8.578125 -3.515625 L 3.15625 -3.421875 L 2.015625 -0.03125 L 0.25 0 L 4.96875 -13.03125 L 6.46875 -13.046875 L 11.640625 -0.1875 L 9.890625 -0.171875 Z M 3.65625 -4.84375 L 8.0625 -4.921875 L 5.75 -10.921875 Z M 3.65625 -4.84375 "/></g></g></g><g fill="#000000" fill-opacity="1"><g transform="translate(181.485443, 246.680776)"><g><path d="M 11.3125 -1.78125 L 9.609375 -1.515625 L 1.609375 -10.34375 L 3.171875 -0.5 L 1.484375 -0.234375 L -0.53125 -13.015625 L 1.15625 -13.28125 L 9.171875 -4.40625 L 7.609375 -14.296875 L 9.296875 -14.5625 Z M 11.3125 -1.78125 "/></g></g></g><g fill="#000000" fill-opacity="1"><g transform="translate(196.159734, 244.20593)"><g><path d="M 10.0625 -4.890625 C 9.832031 -4.148438 9.382812 -3.515625 8.71875 -2.984375 C 8.0625 -2.460938 7.238281 -2.046875 6.25 -1.734375 C 5.226562 -1.421875 4.253906 -1.378906 3.328125 -1.609375 C 2.398438 -1.847656 1.59375 -2.335938 0.90625 -3.078125 C 0.21875 -3.816406 -0.3125 -4.753906 -0.6875 -5.890625 L -1.03125 -6.984375 C -1.601562 -8.847656 -1.613281 -10.425781 -1.0625 -11.71875 C -0.507812 -13.019531 0.550781 -13.914062 2.125 -14.40625 C 3.414062 -14.800781 4.554688 -14.789062 5.546875 -14.375 C 6.535156 -13.957031 7.304688 -13.164062 7.859375 -12 L 6.21875 -11.484375 C 5.425781 -13.046875 4.207031 -13.570312 2.5625 -13.0625 C 1.46875 -12.71875 0.753906 -12.070312 0.421875 -11.125 C 0.0976562 -10.1875 0.160156 -8.988281 0.609375 -7.53125 L 0.90625 -6.53125 C 1.34375 -5.132812 2.003906 -4.128906 2.890625 -3.515625 C 3.773438 -2.898438 4.757812 -2.753906 5.84375 -3.078125 C 6.457031 -3.273438 6.972656 -3.507812 7.390625 -3.78125 C 7.804688 -4.050781 8.109375 -4.398438 8.296875 -4.828125 L 7.4375 -7.609375 L 4.578125 -6.71875 L 4.171875 -8.03125 L 8.65625 -9.421875 Z M 10.0625 -4.890625 "/></g></g></g><g fill="#000000" fill-opacity="1"><g transform="translate(209.756386, 239.854995)"><g><path d="M 6.40625 -6.71875 L 1.5 -4.421875 L 1.828125 -0.859375 L 0.21875 -0.109375 L -0.765625 -13.90625 L 0.59375 -14.546875 L 10.546875 -4.921875 L 8.96875 -4.1875 Z M 1.375 -5.90625 L 5.359375 -7.765625 L 0.796875 -12.328125 Z M 1.375 -5.90625 "/></g></g></g><g fill="#000000" fill-opacity="1"><g transform="translate(221.92531, 233.892776)"><g/></g></g><g fill="#000000" fill-opacity="1"><g transform="translate(227.302657, 230.822123)"><g><path d="M 3.34375 -5.21875 L 0.0625 -16.046875 L 1.5625 -17.140625 L 5.296875 -3.84375 L 4.078125 -2.96875 L -7.40625 -10.609375 L -5.90625 -11.703125 Z M 3.34375 -5.21875 "/></g></g></g><g fill="#000000" fill-opacity="1"><g transform="translate(238.133678, 222.836053)"><g><path d="M 4.078125 -12.28125 C 4.953125 -11.375 5.5625 -10.429688 5.90625 -9.453125 C 6.257812 -8.484375 6.328125 -7.546875 6.109375 -6.640625 C 5.890625 -5.742188 5.398438 -4.9375 4.640625 -4.21875 C 3.910156 -3.507812 3.085938 -3.0625 2.171875 -2.875 C 1.253906 -2.6875 0.316406 -2.773438 -0.640625 -3.140625 C -1.597656 -3.515625 -2.503906 -4.132812 -3.359375 -5 L -4.015625 -5.6875 C -4.867188 -6.570312 -5.46875 -7.507812 -5.8125 -8.5 C -6.164062 -9.5 -6.226562 -10.453125 -6 -11.359375 C -5.78125 -12.273438 -5.300781 -13.085938 -4.5625 -13.796875 C -3.820312 -14.503906 -2.988281 -14.953125 -2.0625 -15.140625 C -1.144531 -15.328125 -0.207031 -15.222656 0.75 -14.828125 C 1.71875 -14.441406 2.632812 -13.796875 3.5 -12.890625 Z M 2.28125 -11.734375 C 1.21875 -12.835938 0.179688 -13.46875 -0.828125 -13.625 C -1.847656 -13.789062 -2.753906 -13.492188 -3.546875 -12.734375 C -4.328125 -11.984375 -4.65625 -11.097656 -4.53125 -10.078125 C -4.414062 -9.054688 -3.859375 -8.015625 -2.859375 -6.953125 L -2.203125 -6.265625 C -1.179688 -5.203125 -0.148438 -4.578125 0.890625 -4.390625 C 1.941406 -4.203125 2.859375 -4.488281 3.640625 -5.25 C 4.441406 -6.007812 4.78125 -6.890625 4.65625 -7.890625 C 4.539062 -8.890625 3.972656 -9.941406 2.953125 -11.046875 Z M 2.28125 -11.734375 "/></g></g></g><g fill="#000000" fill-opacity="1"><g transform="translate(248.383369, 212.766214)"><g><path d="M -1.625 -8.28125 L -4.609375 -14.96875 L -3.390625 -16.484375 L 0.140625 -7.9375 L 3.921875 -4.921875 L 2.859375 -3.59375 L -0.921875 -6.609375 L -10.015625 -8.171875 L -8.796875 -9.703125 Z M -1.625 -8.28125 "/></g></g></g><g fill="#000000" fill-opacity="1"><g transform="translate(256.282068, 202.724554)"><g><path d="M 1.578125 -9.140625 L -1.21875 -4.5 L 1.046875 -1.71875 L 0.125 -0.21875 L -8.375 -11.140625 L -7.59375 -12.421875 L 6.03125 -9.953125 L 5.125 -8.46875 Z M -2.15625 -5.65625 L 0.125 -9.4375 L -6.1875 -10.6875 Z M -2.15625 -5.65625 "/></g></g></g><g fill="#000000" fill-opacity="1"><g transform="translate(263.304319, 190.89821)"><g><path d="M 2.8125 -10.828125 C 3.226562 -10.179688 3.421875 -9.4375 3.390625 -8.59375 C 3.359375 -7.75 3.132812 -6.847656 2.71875 -5.890625 C 2.300781 -4.910156 1.703125 -4.140625 0.921875 -3.578125 C 0.148438 -3.023438 -0.738281 -2.726562 -1.75 -2.6875 C -2.769531 -2.644531 -3.832031 -2.847656 -4.9375 -3.296875 L -5.984375 -3.75 C -7.773438 -4.519531 -8.976562 -5.535156 -9.59375 -6.796875 C -10.21875 -8.054688 -10.207031 -9.441406 -9.5625 -10.953125 C -9.019531 -12.203125 -8.269531 -13.066406 -7.3125 -13.546875 C -6.351562 -14.035156 -5.253906 -14.113281 -4.015625 -13.78125 L -4.6875 -12.203125 C -6.394531 -12.597656 -7.59375 -12.003906 -8.28125 -10.421875 C -8.726562 -9.367188 -8.695312 -8.410156 -8.1875 -7.546875 C -7.6875 -6.691406 -6.734375 -5.957031 -5.328125 -5.34375 L -4.375 -4.921875 C -3.03125 -4.347656 -1.832031 -4.195312 -0.78125 -4.46875 C 0.257812 -4.75 1 -5.40625 1.4375 -6.4375 C 1.695312 -7.03125 1.859375 -7.578125 1.921875 -8.078125 C 1.984375 -8.578125 1.914062 -9.035156 1.71875 -9.453125 L -0.953125 -10.59375 L -2.140625 -7.84375 L -3.390625 -8.390625 L -1.53125 -12.703125 Z M 2.8125 -10.828125 "/></g></g></g><g fill="#000000" fill-opacity="1"><g transform="translate(268.770455, 177.755594)"><g><path d="M -3.328125 -10.109375 L -4.875 -4.71875 L -0.46875 -3.453125 L 1.3125 -9.71875 L 2.65625 -9.34375 L 0.40625 -1.4375 L -12.03125 -4.984375 L -9.796875 -12.8125 L -8.453125 -12.421875 L -10.21875 -6.234375 L -6.21875 -5.09375 L -4.671875 -10.484375 Z M -3.328125 -10.109375 "/></g></g></g><g fill="#000000" fill-opacity="1"><g transform="translate(272.007756, 166.047722)"><g><path d="M -4.859375 -6.15625 C -5.515625 -4.78125 -6.195312 -3.804688 -6.90625 -3.234375 C -7.613281 -2.671875 -8.410156 -2.460938 -9.296875 -2.609375 C -10.304688 -2.765625 -11.078125 -3.296875 -11.609375 -4.203125 C -12.140625 -5.109375 -12.304688 -6.207031 -12.109375 -7.5 C -11.972656 -8.382812 -11.679688 -9.140625 -11.234375 -9.765625 C -10.785156 -10.398438 -10.226562 -10.859375 -9.5625 -11.140625 C -8.90625 -11.429688 -8.222656 -11.519531 -7.515625 -11.40625 L -7.78125 -9.703125 C -8.550781 -9.828125 -9.195312 -9.675781 -9.71875 -9.25 C -10.238281 -8.832031 -10.570312 -8.175781 -10.71875 -7.28125 C -10.851562 -6.445312 -10.773438 -5.769531 -10.484375 -5.25 C -10.191406 -4.726562 -9.710938 -4.414062 -9.046875 -4.3125 C -8.535156 -4.226562 -8.0625 -4.378906 -7.625 -4.765625 C -7.195312 -5.148438 -6.75 -5.847656 -6.28125 -6.859375 C -5.820312 -7.867188 -5.363281 -8.644531 -4.90625 -9.1875 C -4.457031 -9.738281 -3.96875 -10.117188 -3.4375 -10.328125 C -2.914062 -10.546875 -2.320312 -10.601562 -1.65625 -10.5 C -0.632812 -10.332031 0.117188 -9.796875 0.609375 -8.890625 C 1.109375 -7.984375 1.253906 -6.859375 1.046875 -5.515625 C 0.910156 -4.640625 0.613281 -3.84375 0.15625 -3.125 C -0.289062 -2.414062 -0.84375 -1.898438 -1.5 -1.578125 C -2.15625 -1.265625 -2.851562 -1.164062 -3.59375 -1.28125 L -3.328125 -2.96875 C -2.554688 -2.851562 -1.898438 -3.046875 -1.359375 -3.546875 C -0.828125 -4.046875 -0.484375 -4.773438 -0.328125 -5.734375 C -0.191406 -6.617188 -0.265625 -7.328125 -0.546875 -7.859375 C -0.828125 -8.390625 -1.28125 -8.703125 -1.90625 -8.796875 C -2.539062 -8.898438 -3.0625 -8.757812 -3.46875 -8.375 C -3.882812 -7.988281 -4.347656 -7.25 -4.859375 -6.15625 Z M -4.859375 -6.15625 "/></g></g></g></svg>