<svg width="19" height="29" viewBox="0 0 19 29" fill="none" xmlns="http://www.w3.org/2000/svg">
<path id="Picto t&#195;&#169;l&#195;&#169;phone" d="M2.97073 10.8635C3.77968 14.8528 5.85046 18.5138 8.85282 21.2625L12.3244 19.2988C12.7662 19.0489 13.2754 19.0837 13.6701 19.3395C14.9268 20.1804 16.3406 20.8387 17.8847 21.2671C18.2123 21.358 18.4904 21.5753 18.6578 21.8713C18.8252 22.1672 18.8682 22.5175 18.7773 22.8451L17.5778 27.1686C17.4869 27.4962 17.2696 27.7743 16.9737 27.9417C16.6777 28.1091 16.3274 28.1521 15.9998 28.0612C10.4303 26.516 5.70271 22.8217 2.85707 17.7908C0.0114296 12.76 -0.719171 6.80479 0.825993 1.23529C0.916885 0.907667 1.1342 0.629574 1.43013 0.462184C1.72606 0.294793 2.07637 0.251817 2.40399 0.342709L6.72749 1.54219C7.0551 1.63308 7.3332 1.8504 7.50059 2.14633C7.66798 2.44226 7.71095 2.79256 7.62006 3.12018C7.19168 4.66429 7.02748 6.21517 7.1007 7.7255C7.11664 8.19554 6.88416 8.64989 6.44232 8.89981L2.97073 10.8635Z" fill="white"/>
</svg>
